{
  "accessors": [
    {
      "bufferView": 2,
      "componentType": 5126,
      "count": 4821,
      "max": [
        1.801540732383728,
        0.65453153848648071,
        -0.052004814147949219
      ],
      "min": [
        -1.801540732383728,
        -0.81653732061386108,
        -3.2541899681091309
      ],
      "type": "VEC3"
    },
    {
      "bufferView": 2,
      "byteOffset": 57852,
      "componentType": 5126,
      "count": 4821,
      "max": [
        0.99994277954101562,
        0.99959301948547363,
        0.99999749660491943
      ],
      "min": [
        -0.99977004528045654,
        -0.99930095672607422,
        -0.9999239444732666
      ],
      "type": "VEC3"
    },
    {
      "bufferView": 3,
      "componentType": 5126,
      "count": 4821,
      "max": [
        0.9999852180480957,
        0.99852186441421509,
        0.99995815753936768,
        1
      ],
      "min": [
        -0.99998515844345093,
        -0.99915099143981934,
        -0.99982351064682007,
        1
      ],
      "type": "VEC4"
    },
    {
      "bufferView": 3,
      "byteOffset": 77136,
      "componentType": 5126,
      "count": 4821,
      "max": [
        1,
        1,
        1,
        1
      ],
      "min": [
        0,
        0,
        0,
        1
      ],
      "type": "VEC4"
    },
    {
      "bufferView": 1,
      "componentType": 5126,
      "count": 4821,
      "max": [
        0.99799460172653198,
        0.99560463428497314
      ],
      "min": [
        0.0020053146872669458,
        0.0020053146872669458
      ],
      "type": "VEC2"
    },
    {
      "bufferView": 1,
      "byteOffset": 38568,
      "componentType": 5126,
      "count": 4821,
      "max": [
        0.99799460172653198,
        0.99560463428497314
      ],
      "min": [
        0.0020053146872669458,
        0.0020053146872669458
      ],
      "type": "VEC2"
    },
    {
      "bufferView": 1,
      "byteOffset": 77136,
      "componentType": 5126,
      "count": 4821,
      "max": [
        0.99799460172653198,
        0.99560463428497314
      ],
      "min": [
        0.0020053146872669458,
        0.0020053146872669458
      ],
      "type": "VEC2"
    },
    {
      "bufferView": 1,
      "byteOffset": 115704,
      "componentType": 5126,
      "count": 4821,
      "max": [
        0.99799460172653198,
        0.99560463428497314
      ],
      "min": [
        0.0020053146872669458,
        0.0020053146872669458
      ],
      "type": "VEC2"
    },
    {
      "bufferView": 0,
      "componentType": 5125,
      "count": 24030,
      "max": [
        4820
      ],
      "min": [
        0
      ],
      "type": "SCALAR"
    },
    {
      "bufferView": 2,
      "byteOffset": 115704,
      "componentType": 5126,
      "count": 3780,
      "max": [
        0.43183335661888123,
        0.44964262843132019,
        -2.4946660995483398
      ],
      "min": [
        -0.43183335661888123,
        0.11005663871765137,
        -2.8342523574829102
      ],
      "type": "VEC3"
    },
    {
      "bufferView": 2,
      "byteOffset": 161064,
      "componentType": 5126,
      "count": 3780,
      "max": [
        1,
        1,
        1
      ],
      "min": [
        -1,
        -1,
        -1
      ],
      "type": "VEC3"
    },
    {
      "bufferView": 3,
      "byteOffset": 154272,
      "componentType": 5126,
      "count": 3780,
      "max": [
        1,
        1,
        1,
        1
      ],
      "min": [
        -1,
        -0.049146145582199097,
        -1,
        -1
      ],
      "type": "VEC4"
    },
    {
      "bufferView": 3,
      "byteOffset": 214752,
      "componentType": 5126,
      "count": 3780,
      "max": [
        1,
        1,
        1,
        1
      ],
      "min": [
        1,
        1,
        1,
        1
      ],
      "type": "VEC4"
    },
    {
      "bufferView": 1,
      "byteOffset": 154272,
      "componentType": 5126,
      "count": 3780,
      "max": [
        0.28086778521537781,
        0.96742618083953857
      ],
      "min": [
        0.23681873083114624,
        0.92337715625762939
      ],
      "type": "VEC2"
    },
    {
      "bufferView": 0,
      "byteOffset": 96120,
      "componentType": 5125,
      "count": 5760,
      "max": [
        3779
      ],
      "min": [
        0
      ],
      "type": "SCALAR"
    }
  ],
  "asset": {
    "extras": {
      "author": "olivier.gide (https://sketchfab.com/olivier.gide)",
      "license": "CC-BY-4.0 (http://creativecommons.org/licenses/by/4.0/)",
      "source": "https://sketchfab.com/3d-models/baby-yoda-textures-b664c70b6cb94246aa34ebb4a88efb59",
      "title": "BABY YODA TEXTURES"
    },
    "generator": "Sketchfab-7.17.0",
    "version": "2.0"
  },
  "bufferViews": [
    {
      "buffer": 0,
      "byteLength": 119160,
      "byteOffset": 0,
      "name": "floatBufferViews",
      "target": 34963
    },
    {
      "buffer": 0,
      "byteLength": 184512,
      "byteOffset": 119160,
      "byteStride": 8,
      "name": "floatBufferViews",
      "target": 34962
    },
    {
      "buffer": 0,
      "byteLength": 206424,
      "byteOffset": 303672,
      "byteStride": 12,
      "name": "floatBufferViews",
      "target": 34962
    },
    {
      "buffer": 0,
      "byteLength": 275232,
      "byteOffset": 510096,
      "byteStride": 16,
      "name": "floatBufferViews",
      "target": 34962
    }
  ],
  "buffers": [
    {
      "byteLength": 785328,
      "uri": "scene.bin"
    }
  ],
  "images": [
    {
      "uri": "textures/BABY_YODA_baseColor.png"
    },
    {
      "uri": "textures/BABY_YODA_metallicRoughness.png"
    },
    {
      "uri": "textures/BABY_YODA_normal.png"
    }
  ],
  "materials": [
    {
      "doubleSided": true,
      "emissiveFactor": [
        0,
        0,
        0
      ],
      "name": "BABY_YODA",
      "normalTexture": {
        "index": 2,
        "scale": 1,
        "texCoord": 0
      },
      "pbrMetallicRoughness": {
        "baseColorFactor": [
          1,
          1,
          1,
          1
        ],
        "baseColorTexture": {
          "index": 0,
          "texCoord": 0
        },
        "metallicFactor": 0,
        "metallicRoughnessTexture": {
          "index": 1,
          "texCoord": 0
        },
        "roughnessFactor": 1
      }
    },
    {
      "doubleSided": true,
      "emissiveFactor": [
        0,
        0,
        0
      ],
      "name": "BABY_YODA_EYES",
      "pbrMetallicRoughness": {
        "baseColorFactor": [
          0,
          0,
          0,
          1
        ],
        "metallicFactor": 0,
        "roughnessFactor": 0.0772727
      }
    }
  ],
  "meshes": [
    {
      "primitives": [
        {
          "attributes": {
            "COLOR_0": 3,
            "NORMAL": 1,
            "POSITION": 0,
            "TANGENT": 2,
            "TEXCOORD_0": 4,
            "TEXCOORD_1": 5,
            "TEXCOORD_2": 6,
            "TEXCOORD_3": 7
          },
          "indices": 8,
          "material": 0,
          "mode": 4
        }
      ]
    },
    {
      "primitives": [
        {
          "attributes": {
            "COLOR_0": 12,
            "NORMAL": 10,
            "POSITION": 9,
            "TANGENT": 11,
            "TEXCOORD_0": 13
          },
          "indices": 14,
          "material": 1,
          "mode": 4
        }
      ]
    }
  ],
  "nodes": [
    {
      "children": [
        1
      ],
      "name": "RootNode (gltf orientation matrix)",
      "rotation": [
        -0.70710678118654746,
        -0,
        -0,
        0.70710678118654757
      ]
    },
    {
      "children": [
        2
      ],
      "name": "RootNode (model correction matrix)"
    },
    {
      "children": [
        3
      ],
      "name": "root"
    },
    {
      "children": [
        4
      ],
      "matrix": [
        1,
        0,
        0,
        0,
        0,
        2.2204460492503131e-16,
        1,
        0,
        0,
        -1,
        2.2204460492503131e-16,
        0,
        0,
        0,
        0,
        1
      ],
      "name": "GLTF_SceneRootNode"
    },
    {
      "children": [
        5,
        6
      ],
      "matrix": [
        1,
        0,
        0,
        0,
        0,
        -1.685873969314855e-07,
        0.99999999999998579,
        0,
        0,
        -0.99999999999998579,
        -1.685873969314855e-07,
        0,
        0,
        0,
        0,
        1
      ],
      "name": "BABY_YODA_2"
    },
    {
      "mesh": 0,
      "name": ""
    },
    {
      "mesh": 1,
      "name": ""
    }
  ],
  "samplers": [
    {
      "magFilter": 9729,
      "minFilter": 9987,
      "wrapS": 10497,
      "wrapT": 10497
    }
  ],
  "scene": 0,
  "scenes": [
    {
      "name": "OSG_Scene",
      "nodes": [
        0
      ]
    }
  ],
  "textures": [
    {
      "sampler": 0,
      "source": 0
    },
    {
      "sampler": 0,
      "source": 1
    },
    {
      "sampler": 0,
      "source": 2
    }
  ]
}

